<?xml version="1.0" standalone="no"?>
<!DOCTYPE svg PUBLIC "-//W3C//DTD SVG 20010904//EN"
 "http://www.w3.org/TR/2001/REC-SVG-20010904/DTD/svg10.dtd">
<svg version="1.0" xmlns="http://www.w3.org/2000/svg"
 width="232.000000pt" height="232.000000pt" viewBox="0 0 232.000000 232.000000"
 preserveAspectRatio="xMidYMid meet">
<metadata>
Created by potrace 1.11, written by Peter Selinger 2001-2013
</metadata>
<g transform="translate(0.000000,232.000000) scale(0.100000,-0.100000)"
fill="#000000" stroke="none">
<path d="M960 2300 c-251 -47 -454 -157 -632 -344 -43 -45 -78 -84 -78 -88 0
-4 -6 -13 -12 -20 -54 -56 -155 -261 -183 -368 -46 -177 -55 -402 -21 -555 85
-385 343 -695 696 -838 93 -37 194 -65 275 -75 64 -9 266 -9 325 0 371 54 697
290 866 627 24 49 44 95 44 103 0 8 4 18 9 24 5 5 22 59 37 119 38 153 40 382
5 536 -67 294 -255 556 -518 725 -71 45 -227 116 -285 129 -13 2 -52 12 -88
20 -100 24 -324 27 -440 5z"/>
</g>
</svg>
