<?xml version="1.0" standalone="no"?>
<!DOCTYPE svg PUBLIC "-//W3C//DTD SVG 20010904//EN"
 "http://www.w3.org/TR/2001/REC-SVG-20010904/DTD/svg10.dtd">
<svg version="1.0" xmlns="http://www.w3.org/2000/svg"
 width="500.000000pt" height="500.000000pt" viewBox="0 0 500.000000 500.000000"
 preserveAspectRatio="xMidYMid meet">
<metadata>
Created by potrace 1.11, written by Peter Selinger 2001-2013
</metadata>
<g transform="translate(0.000000,500.000000) scale(0.100000,-0.100000)"
fill="#000000" stroke="none">
<path d="M4087 3404 c-1 -1 -42 -5 -91 -8 -49 -4 -93 -9 -97 -12 -5 -2 -32 -7
-61 -10 -29 -3 -59 -7 -67 -10 -18 -6 -134 -17 -181 -17 -64 0 -171 14 -243
33 -56 15 -95 18 -175 15 l-103 -5 -98 -69 c-95 -68 -98 -71 -128 -143 -17
-40 -34 -86 -37 -103 -3 -16 -9 -41 -12 -55 -3 -14 -7 -32 -8 -40 -1 -9 -5
-21 -10 -28 -4 -6 -5 -12 -2 -12 7 0 -29 -42 -87 -102 -38 -39 -39 -39 -64
-23 -14 9 -50 31 -82 47 -31 17 -62 35 -68 41 -7 5 -13 6 -13 2 0 -4 -7 -2
-15 5 -9 7 -35 23 -58 35 -23 12 -59 31 -79 43 -51 29 -111 59 -123 62 -5 1
-22 11 -37 21 -14 10 -29 19 -32 19 -3 0 -81 37 -173 81 -315 153 -288 142
-335 135 -24 -4 -59 -10 -78 -12 -19 -2 -49 -9 -67 -15 -17 -5 -44 -12 -60
-15 -15 -3 -36 -7 -45 -10 -9 -3 -46 7 -81 21 -64 25 -72 26 -172 9 -39 -7
-81 -13 -125 -19 -19 -2 -46 -7 -59 -9 -14 -3 -47 -8 -75 -12 -28 -3 -60 -8
-71 -9 -11 -2 -42 -6 -70 -10 -27 -4 -51 -8 -52 -9 -1 -1 62 -44 140 -96 78
-52 144 -97 147 -100 5 -5 19 -15 250 -170 85 -58 164 -113 174 -122 11 -10
23 -18 28 -18 7 0 98 -59 108 -71 3 -3 20 -14 38 -24 17 -11 32 -23 32 -27 0
-4 4 -8 9 -8 11 0 235 -151 239 -162 2 -4 7 -8 12 -8 9 0 131 -78 140 -90 3
-3 23 -17 45 -30 22 -13 42 -26 45 -29 11 -12 126 -88 143 -94 9 -4 17 -13 17
-21 0 -8 -36 -64 -80 -123 -44 -59 -86 -117 -94 -128 -8 -11 -47 -64 -86 -119
-75 -103 -110 -173 -260 -526 -34 -80 -67 -154 -74 -165 -17 -30 -59 -135 -55
-140 2 -2 27 17 54 42 28 25 75 66 105 91 30 26 62 54 71 62 9 8 40 35 69 60
30 25 65 56 79 70 15 14 29 25 31 25 5 1 34 27 122 108 22 20 43 37 47 37 4 0
13 8 22 18 8 9 35 33 59 52 23 19 57 50 76 68 18 17 35 32 39 32 3 0 11 5 18
10 7 6 46 36 87 68 41 31 77 60 78 64 2 5 10 8 17 8 7 0 15 3 17 8 2 4 66 54
143 111 77 58 142 108 143 113 2 4 8 8 14 8 5 0 15 6 23 13 7 6 25 21 39 31
14 10 26 23 26 28 0 4 12 27 26 50 80 127 194 335 194 354 0 7 4 14 9 16 6 2
13 29 16 62 4 32 11 70 16 85 6 14 9 26 7 26 -6 0 57 120 65 123 4 2 7 9 7 16
0 13 117 237 129 246 3 3 13 19 21 35 8 17 17 32 20 35 3 3 11 17 19 32 7 14
29 34 47 44 19 10 34 22 34 26 0 5 7 8 15 8 9 0 18 6 21 14 6 16 58 43 95 50
13 3 26 5 29 6 3 2 8 2 11 2 4 -1 22 3 40 9 19 5 48 12 64 14 17 3 41 10 55
15 33 12 89 20 179 25 78 4 176 23 166 33 -5 5 -142 11 -148 6z"/>
</g>
</svg>
