<?xml version="1.0" standalone="no"?>
<!DOCTYPE svg PUBLIC "-//W3C//DTD SVG 20010904//EN"
 "http://www.w3.org/TR/2001/REC-SVG-20010904/DTD/svg10.dtd">
<svg version="1.0" xmlns="http://www.w3.org/2000/svg"
 width="144.000000pt" height="144.000000pt" viewBox="0 0 144.000000 144.000000"
 preserveAspectRatio="xMidYMid meet">
<metadata>
Created by potrace 1.11, written by Peter Selinger 2001-2013
</metadata>
<g transform="translate(0.000000,144.000000) scale(0.100000,-0.100000)"
fill="#000000" stroke="none">
<path d="M317 1299 c-123 -28 -209 -129 -226 -264 -10 -85 4 -129 42 -133 15
-2 25 -7 23 -10 -6 -9 -14 -69 -21 -152 -3 -36 -8 -90 -11 -120 -3 -30 -7 -85
-9 -122 -2 -37 -9 -76 -14 -87 -39 -72 28 -203 131 -257 44 -24 142 -23 187 0
28 15 40 16 75 7 118 -32 290 -35 424 -6 67 14 76 14 105 -2 43 -22 142 -22
185 0 101 54 169 187 132 257 -6 11 -12 52 -15 92 -2 40 -6 93 -9 118 -3 25
-8 79 -11 120 -4 41 -10 94 -15 118 -7 39 -6 42 15 42 34 0 46 22 46 83 1 70
-8 111 -37 168 -45 90 -135 145 -251 154 -92 8 -153 -8 -197 -51 l-36 -35
-109 -1 -109 -1 -36 36 c-54 52 -153 69 -259 46z"/>
</g>
</svg>
